#!OML:ASF X:\für Bonn\!DataBase\2005_08_11_Bastian_Final\c3d\Bastian.ASF
:FULLY-SPECIFIED
:DEGREES
455
root 0.64628 1.22188 20.3164 -644.824 -1.84602 -181.263
lowerback 15.0076 0.246831 4.6166
upperback 17.3345 -2.31251 1.27135
thorax 10.59 -2.34132 -1.35011
lowerneck 9.75321 -1.9084 -12.2035
upperneck 12.9404 -5.19461 3.86081
head 2.71931 -3.6661 3.14812
rclavicle -2.94201e-014 2.74323e-014
rhumerus -36.2244 41.7142 -78.4514
rradius 29.5361
rwrist 8.5933
rhand -20.554 0.179971
rfingers 7.12502
rthumb 5.80492 -29.7205
lclavicle -2.94201e-014 2.74323e-014
lhumerus -36.3972 -33.1653 88.0995
lradius 29.5305
lwrist 8.93302
lhand -19.8414 -3.59771
lfingers 7.12502
lthumb 6.49291 26.2828
rfemur 5.05902 8.42727 24.6824
rtibia 30.8384
rfoot -6.13741 -14.1841
rtoes -3.2622
lfemur 6.55918 4.29202 -16.2322
ltibia 26.8956
lfoot 10.1147 6.64263
ltoes -13.6096
456
root 0.642033 1.22519 20.3205 -644.737 -1.84819 -181.081
lowerback 14.7488 0.166663 4.51162
upperback 17.0775 -2.34252 1.2923
thorax 10.41 -2.32077 -1.25766
lowerneck 9.58696 -1.97431 -12.0608
upperneck 12.9758 -5.23062 3.81279
head 2.75377 -3.67208 3.10646
rclavicle 4.37326e-015 -2.0276e-014
rhumerus -36.4128 41.8947 -79.0857
rradius 28.9558
rwrist 8.74981
rhand -20.494 0.17207
rfingers 7.12502
rthumb 5.86293 -29.7268
lclavicle 4.37326e-015 -2.0276e-014
lhumerus -36.1449 -33.6155 88.7193
lradius 28.6722
lwrist 9.11677
lhand -19.682 -3.65445
lfingers 7.12502
lthumb 6.64681 26.2212
rfemur 5.04893 8.43358 24.6355
rtibia 30.8223
rfoot -6.43206 -14.5574
rtoes -3.11161
lfemur 6.53936 4.09113 -16.3362
ltibia 26.7358
lfoot 9.99021 6.66556
ltoes -13.3544
457
root 0.638106 1.22951 20.3247 -644.659 -1.8283 -180.934
lowerback 14.4969 0.0996199 4.4348
upperback 16.8184 -2.35494 1.32636
thorax 10.2278 -2.29037 -1.16799
lowerneck 9.45288 -2.03059 -11.9475
upperneck 13.0113 -5.26511 3.78407
head 2.78432 -3.67981 3.0761
rclavicle 1.19271e-015 1.76918e-014
rhumerus -36.7197 42.2292 -79.8126
rradius 28.4699
rwrist 8.65882
rhand -20.4254 0.0821778
rfingers 7.12502
rthumb 5.92908 -29.8149
lclavicle 1.19271e-015 1.76918e-014
lhumerus -35.8978 -34.0817 89.3872
lradius 27.8018
lwrist 9.3936
lhand -19.4514 -3.67768
lfingers 7.12502
lthumb 6.86939 26.1909
rfemur 5.04226 8.36326 24.5956
rtibia 30.8176
rfoot -6.68868 -14.8571
rtoes -3.0436
lfemur 6.53656 3.9481 -16.3911
ltibia 26.5703
lfoot 9.90557 6.62389
ltoes -13.2057
458
root 0.633131 1.23209 20.3275 -644.576 -1.80693 -180.806
lowerback 14.271 0.034495 4.37335
upperback 16.5472 -2.36084 1.34638
thorax 10.018 -2.25446 -1.10137
lowerneck 9.30968 -2.09238 -11.79
upperneck 13.0546 -5.30169 3.73597
head 2.81708 -3.6874 3.03238
rclavicle -8.74653e-015 2.04748e-014
rhumerus -37.0139 42.564 -80.5867
rradius 27.9409
rwrist 8.51619
rhand -20.3319 0.0112881
rfingers 7.12502
rthumb 6.01939 -29.8832
lclavicle -8.74653e-015 2.04748e-014
lhumerus -35.661 -34.4416 90.0062
lradius 26.9228
lwrist 9.53413
lhand -19.2321 -3.70414
lfingers 7.12502
lthumb 7.08111 26.1574
rfemur 5.03023 8.3541 24.5698
rtibia 30.8203
rfoot -6.99631 -15.2164
rtoes -2.93947
lfemur 6.53258 3.81336 -16.4446
ltibia 26.3998
lfoot 9.80401 6.60878
ltoes -13.1009
459
root 0.627299 1.23465 20.3316 -644.501 -1.81111 -180.709
lowerback 14.044 -0.0194962 4.30208
upperback 16.2922 -2.35788 1.35941
thorax 9.83081 -2.21722 -1.03908
lowerneck 9.16422 -2.14878 -11.6657
upperneck 13.0773 -5.33455 3.72871
head 2.84538 -3.69178 3.00673
rclavicle 6.36111e-015 1.25234e-014
rhumerus -37.2439 42.8412 -81.3216
rradius 27.4146
rwrist 8.31319
rhand -20.2325 -0.099932
rfingers 7.12502
rthumb 6.11533 -29.9917
lclavicle 6.36111e-015 1.25234e-014
lhumerus -35.4698 -34.8977 90.7112
lradius 26.0921
lwrist 9.87536
lhand -19.0613 -3.68108
lfingers 7.12502
lthumb 7.246 26.1749
rfemur 5.0128 8.33097 24.505
rtibia 30.8323
rfoot -7.26949 -15.5162
rtoes -2.98444
lfemur 6.54943 3.68461 -16.5283
ltibia 26.2226
lfoot 9.66535 6.63539
ltoes -13.1682
460
root 0.621024 1.23633 20.3355 -644.414 -1.81291 -180.623
lowerback 13.8386 -0.069927 4.23681
upperback 16.0228 -2.34714 1.36944
thorax 9.61635 -2.17534 -0.982669
lowerneck 9.00525 -2.20158 -11.5038
upperneck 13.1199 -5.35914 3.70834
head 2.87971 -3.69184 2.97061
rclavicle -7.55382e-015 1.05356e-014
rhumerus -37.6091 43.2936 -82.1941
rradius 26.9442
rwrist 7.90024
rhand -20.1768 -0.255245
rfingers 7.12502
rthumb 6.16912 -30.1454
lclavicle -7.55382e-015 1.05356e-014
lhumerus -35.2907 -35.2473 91.4042
lradius 25.2511
lwrist 10.1085
lhand -18.8882 -3.62395
lfingers 7.12502
lthumb 7.41311 26.2262
rfemur 4.96548 8.29898 24.4348
rtibia 30.8529
rfoot -7.54226 -15.8412
rtoes -2.88731
lfemur 6.5485 3.56227 -16.6097
ltibia 26.0386
lfoot 9.54473 6.68458
ltoes -12.9233
461
root 0.615084 1.23881 20.3392 -644.354 -1.82256 -180.549
lowerback 13.6439 -0.112519 4.17621
upperback 15.7805 -2.3345 1.37858
thorax 9.43087 -2.13637 -0.931756
lowerneck 8.82261 -2.25322 -11.4213
upperneck 13.1462 -5.38806 3.76206
head 2.91689 -3.69319 2.9696
rclavicle -8.34896e-015 3.06128e-014
rhumerus -37.8961 43.6964 -83.0095
rradius 26.4645
rwrist 7.51515
rhand -20.0833 -0.430872
rfingers 7.12502
rthumb 6.25941 -30.3184
lclavicle -8.34896e-015 3.06128e-014
lhumerus -35.1026 -35.6543 92.1063
lradius 24.4645
lwrist 10.4554
lhand -18.7426 -3.50438
lfingers 7.12502
lthumb 7.55357 26.3407
rfemur 4.94974 8.24978 24.3498
rtibia 30.8871
rfoot -7.87548 -16.1344
rtoes -2.75811
lfemur 6.59753 3.42412 -16.6955
ltibia 25.84
lfoot 9.39675 6.76158
ltoes -12.6352
462
root 0.609756 1.24011 20.3425 -644.274 -1.81566 -180.457
lowerback 13.4614 -0.165192 4.09991
upperback 15.5163 -2.33437 1.40501
thorax 9.21449 -2.10589 -0.851728
lowerneck 8.64503 -2.30625 -11.3149
upperneck 13.1734 -5.41419 3.76248
head 2.95173 -3.69372 2.94836
rclavicle 1.90833e-014 -3.08116e-014
rhumerus -38.3102 44.1996 -83.9214
rradius 26.0575
rwrist 6.94183
rhand -20.0247 -0.635917
rfingers 7.12502
rthumb 6.31594 -30.5218
lclavicle 1.90833e-014 -3.08116e-014
lhumerus -34.853 -35.8001 92.7356
lradius 23.5876
lwrist 10.5502
lhand -18.5546 -3.44707
lfingers 7.12502
lthumb 7.7351 26.3915
rfemur 4.90697 8.29714 24.3201
rtibia 30.9283
rfoot -8.16666 -16.5463
rtoes -2.7034
lfemur 6.61523 3.30681 -16.7579
ltibia 25.635
lfoot 9.26939 6.81046
ltoes -12.4287
463
root 0.605085 1.2421 20.3464 -644.212 -1.82205 -180.396
lowerback 13.299 -0.200713 4.03025
upperback 15.2726 -2.31603 1.41881
thorax 9.01349 -2.06815 -0.790896
lowerneck 8.38473 -2.35753 -11.2125
upperneck 13.2431 -5.43011 3.79079
head 3.01223 -3.68822 2.93427
rclavicle 5.96354e-015 -2.8625e-014
rhumerus -38.6266 44.5616 -84.7565
rradius 25.6048
rwrist 6.50569
rhand -19.9474 -0.824188
rfingers 7.12502
rthumb 6.39058 -30.7078
lclavicle 5.96354e-015 -2.8625e-014
lhumerus -34.6429 -36.0077 93.3716
lradius 22.7812
lwrist 10.6872
lhand -18.4264 -3.32099
lfingers 7.12502
lthumb 7.8588 26.5129
rfemur 4.86415 8.24766 24.2351
rtibia 30.9798
rfoot -8.49143 -16.8377
rtoes -2.57208
lfemur 6.66128 3.20593 -16.8286
ltibia 25.4237
lfoot 9.1452 6.83473
ltoes -12.5545
464
root 0.600173 1.24361 20.3509 -644.162 -1.79908 -180.315
lowerback 13.164 -0.245971 3.99361
upperback 15.0302 -2.31164 1.43924
thorax 8.80019 -2.03698 -0.740163
lowerneck 8.12615 -2.41626 -11.1124
upperneck 13.2945 -5.45629 3.82965
head 3.06809 -3.68616 2.92383
rclavicle -7.95139e-015 1.33186e-014
rhumerus -39.0126 44.9866 -85.6568
rradius 25.2237
rwrist 5.88836
rhand -19.9006 -1.07656
rfingers 7.12502
rthumb 6.43574 -30.9588
lclavicle -7.95139e-015 1.33186e-014
lhumerus -34.4183 -36.1797 93.9965
lradius 21.9613
lwrist 10.8356
lhand -18.2855 -3.17733
lfingers 7.12502
lthumb 7.99478 26.6515
rfemur 4.84527 8.29547 24.2186
rtibia 31.0328
rfoot -8.84585 -17.2545
rtoes -2.23839
lfemur 6.71912 3.06957 -16.8684
ltibia 25.2163
lfoot 8.99115 6.90424
ltoes -12.1844
465
root 0.596279 1.24533 20.3541 -644.112 -1.8036 -180.25
lowerback 13.0445 -0.275675 3.92927
upperback 14.7981 -2.29049 1.44892
thorax 8.59223 -2.00124 -0.686871
lowerneck 7.83642 -2.48159 -11.0074
upperneck 13.3432 -5.48449 3.85879
head 3.12803 -3.68328 2.90882
rclavicle 3.97569e-015 -3.37934e-014
rhumerus -39.5247 45.6222 -86.7226
rradius 24.9304
rwrist 5.00204
rhand -19.8546 -1.46702
rfingers 7.12502
rthumb 6.48022 -31.3479
lclavicle 3.97569e-015 -3.37934e-014
lhumerus -34.239 -36.3542 94.6063
lradius 21.2201
lwrist 10.9801
lhand -18.1846 -3.00993
lfingers 7.12502
lthumb 8.09217 26.8151
rfemur 4.80963 8.25807 24.1464
rtibia 31.0866
rfoot -9.12896 -17.598
rtoes -2.29168
lfemur 6.77189 3.02769 -16.9107
ltibia 25.0099
lfoot 8.87848 6.85996
ltoes -12.4049
466
root 0.591728 1.24713 20.357 -644.074 -1.80875 -180.188
lowerback 12.9473 -0.313561 3.85366
upperback 14.5659 -2.284 1.47127
thorax 8.37359 -1.97664 -0.612676
lowerneck 7.54427 -2.53455 -10.929
upperneck 13.3871 -5.49809 3.89367
head 3.1868 -3.67375 2.90003
rclavicle -1.59028e-014 5.1684e-014
rhumerus -40.0648 46.3332 -87.7806
rradius 24.6826
rwrist 4.04019
rhand -19.8113 -1.85828
rfingers 7.12502
rthumb 6.52201 -31.7379
lclavicle -1.59028e-014 5.1684e-014
lhumerus -34.1506 -36.4088 95.2521
lradius 20.5268
lwrist 11.0778
lhand -18.0968 -2.83838
lfingers 7.12502
lthumb 8.17695 26.9834
rfemur 4.79685 8.24959 24.077
rtibia 31.1278
rfoot -9.45544 -17.9515
rtoes -2.0756
lfemur 6.837 2.93133 -16.9734
ltibia 24.8226
lfoot 8.70178 6.9191
ltoes -12.4067
